<?xml version="1.0" encoding="utf-8"?>
<svg version="1.1"
	xmlns="http://www.w3.org/2000/svg"
	xmlns:xlink="http://www.w3.org/1999/xlink" x="0px" y="0px" viewBox="0 0 978.4 151.1" style="enable-background:new 0 0 978.4 151.1;" xml:space="preserve">
	<g>
		<g>
			<path fill="#fff" d="M57.6,151.1c-26.8,0-46.3-13-53.5-35.6v0C0.8,105.3,0,97.1,0,75.5s0.8-29.7,4.1-39.9C11.3,13,30.8,0,57.6,0
			s46.3,13,53.5,35.6c3.2,10.2,4.1,18.4,4.1,39.9s-0.8,29.7-4.1,39.9C103.9,138.1,84.4,151.1,57.6,151.1z M57.6,1
			C31.2,1,12.1,13.7,5,35.9C1.8,46,1,54.1,1,75.5s0.8,29.6,4,39.6v0c7.1,22.2,26.2,34.9,52.5,34.9s45.5-12.7,52.5-34.9
			c3.2-10.1,4-18.2,4-39.6s-0.8-29.6-4-39.6C103.1,13.7,83.9,1,57.6,1z M57.6,123.3c-11.7,0-20-5.8-23.4-16.4
			c-1.8-5.4-2.4-13-2.4-31.4c0-18.3,0.6-26,2.4-31.4c3.4-10.6,11.7-16.4,23.3-16.4s20,5.8,23.4,16.4c1.8,5.4,2.4,13,2.4,31.4
			c0,18.3-0.6,26-2.4,31.4C77.6,117.5,69.3,123.3,57.6,123.3z M57.6,28.8c-11.4,0-19.1,5.4-22.4,15.7c-1.8,5.3-2.3,12.8-2.3,31.1
			s0.6,25.8,2.3,31.1c3.3,10.3,11,15.7,22.4,15.7s19.1-5.4,22.4-15.7l0,0c1.8-5.3,2.3-12.8,2.3-31.1S81.7,49.8,80,44.5
			C76.7,34.2,69,28.8,57.6,28.8z"/>
		</g>
		<g>
			<path fill="#fff" d="M166.2,151.1c-21.8,0-35.3-14.9-35.3-39V46.9c0-1.6,1.1-2.6,2.6-2.6h25.7c1.6,0,2.6,1.1,2.6,2.6v59.4
			c0,11.5,5.7,18.3,15.3,18.3s15.3-6.8,15.3-18.3V46.9c0-1.6,1.1-2.6,2.6-2.6h25.7c1.6,0,2.6,1.1,2.6,2.6v99.2
			c0,1.6-1.1,2.6-2.6,2.6H195c-1.6,0-2.6-1.1-2.6-2.6v-6.3C186.2,147.4,177.6,151.1,166.2,151.1z M133.5,45.3c-1,0-1.6,0.6-1.6,1.6
			v65.2c0,23.4,13.2,38,34.3,38c11.6,0,20.1-3.9,26.1-11.8l0.1-0.2h1v8c0,1,0.6,1.6,1.6,1.6h25.7c1,0,1.6-0.6,1.6-1.6V46.9
			c0-1-0.6-1.6-1.6-1.6H195c-1,0-1.6,0.6-1.6,1.6v59.4c0,12.1-6.1,19.3-16.3,19.3s-16.3-7.2-16.3-19.3V46.9c0-1-0.6-1.6-1.6-1.6
			H133.5z"/>
		</g>
		<g>
			<path fill="#fff" d="M271.8,148.7h-25.7c-1.6,0-2.6-1.1-2.6-2.6V46.9c0-1.6,1.1-2.6,2.6-2.6h25.7c1.6,0,2.6,1.1,2.6,2.6v7.4
			c5.3-8,14.7-12.4,26.6-12.4c7,0,13.9,2.4,18.5,6.3c1.3,1,1.5,2.1,0.8,3.6l-12,21.8c-1.2,1.6-2.5,1.2-3.7,0.6
			c-5.1-3.3-9.9-4.9-14.7-4.7c-10.3,0.4-15.6,7.8-15.6,21.9v54.5C274.4,147.6,273.3,148.7,271.8,148.7z M246.1,45.3
			c-1,0-1.6,0.6-1.6,1.6v99.2c0,1,0.6,1.6,1.6,1.6h25.7c1,0,1.6-0.6,1.6-1.6V91.6c0-14.8,5.6-22.5,16.5-22.9c5-0.2,10,1.4,15.3,4.8
			c1.1,0.6,1.7,0.5,2.3-0.3l11.9-21.7c0.5-1,0.4-1.6-0.5-2.4c-4.5-3.8-11.1-6.1-17.9-6.1c-12.1,0-21.6,4.6-26.5,13l-0.1,0.2h-1v-9.3
			c0-1-0.6-1.6-1.6-1.6H246.1z"/>
		</g>
		<g>
			<path fill="#fff" d="M428,151.1c-27.1,0-46.7-13-53.9-35.6c-3.2-10.2-4.1-18.4-4.1-39.9s0.8-29.7,4.1-39.9C381.3,13,401,0,428,0
			c25,0,44.5,11.7,52.2,31.3c0.4,0.7,0.5,1.5,0.3,2.1c-0.2,0.7-0.7,1.3-1.4,1.7l-22.9,9.6c-1.8,0.5-3.1,0-3.7-1.3
			c-6-10.2-13.4-14.6-24.5-14.6c-11.6,0-19.5,5.5-22.8,15.9c-1.8,5.3-2.3,12.8-2.3,30.8c0,18.2,0.6,25.8,2.3,31.1
			c3.3,10.3,11.3,15.7,23.3,15.7c11.3,0,20-5.6,22.8-14.6c1.2-3.9,1.7-8.4,1.7-14.2c0-0.6-0.2-0.8-0.8-0.8h-19.7
			c-1.6,0-2.6-1.1-2.6-2.6V69.5c0-1.6,1.1-2.6,2.6-2.6h50c1.6,0,2.6,1.1,2.6,2.6v12c0,9.8-0.6,23.5-3.7,32.9
			C474.4,137.4,454.4,151.1,428,151.1z M428,1c-27,0-45.8,12.4-53,34.9c-3.2,10.1-4,18.2-4,39.6s0.8,29.6,4,39.6
			c7.2,22.5,26,34.9,53,34.9c25.9,0,45.5-13.5,52.5-36c2.4-7.3,3.6-18.5,3.6-32.6v-12c0-1-0.6-1.6-1.6-1.6h-50c-1,0-1.6,0.6-1.6,1.6
			v20.5c0,1,0.6,1.6,1.6,1.6h19.7c1.1,0,1.8,0.6,1.8,1.8c0,5.9-0.5,10.5-1.7,14.5c-2.9,9.5-12.1,15.3-23.8,15.3
			c-12.4,0-20.8-5.7-24.2-16.4c-1.8-5.4-2.4-13-2.4-31.4c0-18.4,0.6-25.7,2.4-31.2c3.5-10.9,11.7-16.6,23.8-16.6
			c11.6,0,19.2,4.5,25.4,15.2c0.5,1.2,1.7,1,2.4,0.8l22.8-9.6c1.3-0.7,0.9-2,0.6-2.5C471.8,12.5,452.6,1,428,1z"/>
		</g>
		<g>
			<path fill="#fff" d="M532.4,151.1c-16.9,0-34.9-8.4-34.9-32.1c0-21.8,15.4-33.8,43.5-33.8h18.4c0.6,0,0.8-0.2,0.8-0.8v-3.8
			c0-10-5.4-13.6-20.7-13.6c-9,0-17.1,2.3-22.8,6.5c-0.6,0.5-1.3,0.7-2,0.6c-0.6-0.1-1.2-0.5-1.6-1.2l-9.6-16.9
			c-0.8-1.5-0.5-2.9,0.8-3.7C514,45.4,527,41.9,543,41.9c33,0,46.5,11,46.5,37.9v66.3c0,1.6-1.1,2.6-2.6,2.6h-23.7
			c-1.6,0-2.6-1.1-2.6-2.6v-5.7C554.5,147.5,545,151.1,532.4,151.1z M540.9,86.1c-27.4,0-42.5,11.7-42.5,32.8
			c0,23,17.5,31.1,33.9,31.1c12.8,0,22.3-3.7,28-11.1l0.2-0.2h1v7.3c0,1,0.6,1.6,1.6,1.6h23.7c1,0,1.6-0.6,1.6-1.6V79.8
			c0-26.6-12.7-36.9-45.5-36.9c-15.8,0-28.7,3.4-38.2,10.2c-0.9,0.5-1,1.3-0.5,2.4l9.6,16.9c0.2,0.3,0.4,0.6,0.9,0.7
			c0.4,0.1,0.8-0.1,1.2-0.4c5.9-4.3,14.2-6.7,23.4-6.7c15.8,0,21.7,4,21.7,14.6v3.8c0,1.1-0.6,1.8-1.8,1.8H540.9z M541.3,128.6
			c-7.1,0-15.5-2-15.5-11.4c0-8.4,6-12.3,18.9-12.3h14.5c1.1,0,1.8,0.6,1.8,1.8v7.1C561.1,123.6,554.4,128.6,541.3,128.6z
			 M544.8,106c-12.4,0-17.9,3.5-17.9,11.3c0,6.9,4.9,10.4,14.5,10.4c12.6,0,18.7-4.5,18.7-13.8v-7.1c0-0.6-0.2-0.8-0.8-0.8H544.8z" />
		</g>
		<g>
			<path fill="#fff" d="M761.7,148.7h-25.7c-1.6,0-2.6-1.1-2.6-2.6V86.7c0-11.6-5.7-18.3-15.7-18.3c-9.7,0-15.5,6.8-15.5,18.3v59.4
			c0,1.6-1.1,2.6-2.6,2.6h-25.7c-1.6,0-2.6-1.1-2.6-2.6V86.7c0-11.6-5.7-18.3-15.5-18.3c-9.7,0-15.7,7-15.7,18.3v59.4
			c0,1.6-1.1,2.6-2.6,2.6h-25.7c-1.6,0-2.6-1.1-2.6-2.6V46.9c0-1.6,1.1-2.6,2.6-2.6h25.7c1.6,0,2.6,1.1,2.6,2.6V53
			c3.6-4.5,11.5-11.1,26.4-11.1c12.4,0,21.8,4.3,27.9,12.9c8.4-8.7,19-12.9,32.6-12.9c23.5,0,37.5,14.6,37.5,39v65.2
			C764.4,147.6,763.3,148.7,761.7,148.7z M717.7,67.3c10.5,0,16.7,7.2,16.7,19.3v59.4c0,1,0.6,1.6,1.6,1.6h25.7c1,0,1.6-0.6,1.6-1.6
			V80.9c0-23.8-13.6-38-36.5-38c-13.4,0-23.9,4.2-32.1,12.9l-0.1,0.2h-0.7l-0.1-0.2c-6-8.5-15.2-12.8-27.4-12.8
			c-15.5,0-23.2,7.2-26.3,11.6l-0.1,0.2h-1v-7.8c0-1-0.6-1.6-1.6-1.6h-25.7c-1,0-1.6,0.6-1.6,1.6v99.2c0,1,0.6,1.6,1.6,1.6h25.7
			c1,0,1.6-0.6,1.6-1.6V86.7c0-11.9,6.4-19.3,16.7-19.3c10.5,0,16.5,7,16.5,19.3v59.4c0,1,0.6,1.6,1.6,1.6h25.7c1,0,1.6-0.6,1.6-1.6
			V86.7C701.2,74.7,707.5,67.3,717.7,67.3z"/>
		</g>
		<g>
			<path fill="#fff" d="M828.4,151.1c-23.3,0-40.1-10.9-46.2-29.8c-2.5-7.6-3.7-15.2-3.7-24.7c0-10.1,1.1-17.8,3.4-25
			c6.1-18.8,22.4-29.6,44.9-29.6c22.5,0,39,10.7,45.2,29.4c2.2,7,3.4,14.5,3.4,32c0,1.6-1.1,2.6-2.9,2.6H810c-0.6,0-0.8,0.2-0.8,0.8
			c0.2,2,0.6,3.9,1.3,5.6c2.7,8.6,10.1,13.4,20.9,13.4c9.2,0,16.8-3,23.4-9.1c2-1.6,3.2-0.6,3.7,0.1l14.1,13.2
			c0.6,0.5,0.9,1.1,1,1.8c0,0.7-0.2,1.4-0.8,1.9C862.3,144.9,846.5,151.1,828.4,151.1z M826.9,42.9c-22,0-38.1,10.5-44,28.9
			c-2.3,7-3.4,14.6-3.4,24.6c0,9.4,1.1,16.9,3.6,24.4l0,0c6,18.5,22.5,29.2,45.3,29.2c17.8,0,33.3-6.1,43.7-17.2
			c0.3-0.3,0.5-0.7,0.5-1.1c0-0.4-0.2-0.8-0.6-1.1l-14.1-13.3c-0.4-0.5-1.1-1-2.3,0c-6.7,6.3-14.6,9.3-24,9.3
			c-11.1,0-19.1-5.1-21.9-14c-0.6-1.7-1.1-3.7-1.3-5.9c0-1.2,0.6-1.8,1.8-1.8h62.6c1.2,0,1.9-0.6,1.9-1.6c0-17.4-1.2-24.8-3.4-31.7
			C865.1,53.4,849,42.9,826.9,42.9z M844.3,86.1H810c-1.1,0-1.8-0.6-1.8-1.8c0-2.9,0.3-5.3,1.1-7.8c2.4-7.3,9.1-11.7,17.8-11.7
			c8.7,0,15.4,4.4,17.8,11.7c0.8,2.5,1.1,4.9,1.1,7.9C846,85.4,845.4,86.1,844.3,86.1z M827.1,65.8c-8.3,0-14.5,4.1-16.8,11
			c-0.7,2.4-1,4.7-1,7.5c0,0.6,0.2,0.8,0.8,0.8h34.2c0.6,0,0.8-0.2,0.8-0.8c0-2.8-0.3-5.1-1-7.6C841.7,69.9,835.4,65.8,827.1,65.8z" />
		</g>
		<g>
			<path fill="#fff" d="M931.7,151.1c-18.6,0-35.4-5.7-47.4-16.2l0,0c-0.5-0.5-0.8-1.2-0.8-1.9c0-0.7,0.3-1.3,0.8-1.8l13.9-15.6
			c1.1-1.1,2.4-1.1,3.7-0.1c9.2,7,20.9,11.2,31.3,11.2c9.9,0,15.5-3.4,15.5-9.3c0-4.4-2.4-7.4-14.3-8.5l-11.6-1.3
			c-22.4-2.2-34.2-13.3-34.2-32.1c0-21.1,16.1-33.6,43-33.6c15.9,0,31.3,4.7,42.2,12.9c1.2,1.2,1.3,2.7,0.3,3.9l-12,14.8
			c-0.9,1.2-2.2,1.4-3.6,0.5c-8.1-5.2-18.5-8.3-27.7-8.3c-8,0-12.5,2.9-12.5,8.1c0,4.3,2.3,7,13.9,8.1l11.3,1.3
			c23.1,2.2,34.9,13,34.9,31.9C978.1,137.3,960.2,151.1,931.7,151.1z M885,134.2c6.8,5.9,22,15.9,46.7,15.9c28,0,45.5-13.4,45.7-35
			c0-18.3-11.4-28.7-34-30.9l-11.3-1.3c-10.9-1-14.8-3.4-14.8-9c0-5.8,4.9-9.1,13.5-9.1c13.6,0,24.3,5.9,28.3,8.4
			c1.3,0.8,1.9,0.2,2.3-0.3l12-14.8c0.8-1,0.4-2-0.2-2.5c-10.7-8-25.8-12.7-41.5-12.7c-26.3,0-42,12.2-42,32.6
			c0,18.2,11.5,29,33.3,31.1l11.6,1.3c11.1,1,15.2,3.6,15.2,9.5c0,6.6-6,10.3-16.5,10.3c-10.7,0-22.6-4.3-31.9-11.4
			c-0.9-0.7-1.7-0.7-2.3,0L885,131.9c-0.3,0.3-0.5,0.7-0.5,1.2C884.5,133.5,884.7,133.9,885,134.2z"/>
		</g>
	</g>
</svg>
