<svg width="138" height="138" viewBox="0 0 138 138" fill="none" xmlns="http://www.w3.org/2000/svg">
    <g clip-path="url(#jwsdeqlzia)" fill="#fff">
        <path d="M62.55 80.83a1.26 1.26 0 0 0 2.34-.66c-.18-1.2-2.36-1.02-2.34.66zM58.35 81c-4 .92-3.2 6.53 1.18 5.5 3.13-.74 3.55-6.6-1.18-5.5z"/>
        <path d="M62.38 69.16a23.42 23.42 0 0 0-10.73 3.17c-2.59 1.51-5.62 4-6.38 7.67-1.69 8.31 7.41 12.22 14.09 12.66 7.72.52 15.45-2.19 19.12-6.33a10 10 0 0 0 2.68-6.5c-.02-8.28-10.52-11.33-18.78-10.67zM52.65 85.5c-2.28-6.17 3.19-11.08 8.89-11.67 4.86-.51 8.49 2 9.56 5.17 3.57 10.73-15.04 15.72-18.45 6.5z"/>
        <path d="M69 0a69 69 0 1 0 0 138A69 69 0 0 0 69 0zm22.39 80.5a12.889 12.889 0 0 1-2.18 5.16c-7.08 9.85-28.43 14-41.76 6.5-4.47-2.51-9.1-6.18-8.38-13.5.61-6.3 4.87-11.17 9.06-15.33 4-4 8.19-7.07 13.91-8.5 6.21-1.55 8 3.59 6.38 8.67 3.59-.24 11.22-4.23 14.59-.34 1.48 1.72.91 4.8 0 7.17 4.18 2.28 9.21 3.41 8.38 10.17zM87.2 63.33A4.56 4.56 0 0 0 85.02 60c-1.91-.89-4.87.64-4.87-2 0-2 1.72-1.76 2.69-1.84a7.21 7.21 0 0 1 7.88 6.17c.35 2.54-.38 4.74-1.85 4.83-2.44.17-1.52-1.66-1.67-3.83zm9.22 6.5c-3.6.32-1.72-3.63-1.67-6a11.64 11.64 0 0 0-11.58-11.67c-1.64 0-5.45 1.11-4.86-2.33.26-1.51 1.56-1.49 2.85-1.66 9.74-1.3 17.09 5.36 17.78 14.16.26 3.32-.31 7.31-2.52 7.5z"/>
    </g>
    <defs>
        <clipPath id="jwsdeqlzia">
            <path fill="#fff" d="M0 0h138v138H0z"/>
        </clipPath>
    </defs>
</svg>
