<svg width="138" height="138" viewBox="0 0 138 138" fill="none" xmlns="http://www.w3.org/2000/svg">
    <g clip-path="url(#v8cqwfl3ha)">
        <path d="M69 0a69 69 0 1 0 0 138A69 69 0 0 0 69 0zm4.9 83.68-5.26 5.26a13.78 13.78 0 0 1-9.8 4.06 13.782 13.782 0 0 1-9.8-4.06 13.88 13.88 0 0 1 0-19.6l5.26-5.26a1.92 1.92 0 0 1 2.7 0 1.92 1.92 0 0 1 0 2.7l-5.27 5.26a10.07 10.07 0 0 0 0 14.21 10.07 10.07 0 0 0 14.22 0l5.26-5.26a1.91 1.91 0 0 1 3.106.616 1.89 1.89 0 0 1-.416 2.074zM79.68 61l-18 18a1.85 1.85 0 0 1-1.34.56 1.87 1.87 0 0 1-1.35-.56 1.91 1.91 0 0 1 0-2.69l18-18a1.91 1.91 0 0 1 3.253 1.343A1.9 1.9 0 0 1 79.69 61h-.01zm9.25 7.65-5.26 5.26a1.861 1.861 0 0 1-1.34.56 1.869 1.869 0 0 1-1.35-.56 1.89 1.89 0 0 1 0-2.69l5.26-5.26a10.06 10.06 0 0 0 0-14.21 10.07 10.07 0 0 0-14.22 0l-5.26 5.26a1.91 1.91 0 0 1-2.69 0 1.92 1.92 0 0 1 0-2.7l5.26-5.26a13.88 13.88 0 0 1 19.6 0 13.86 13.86 0 0 1-.03 19.6h.03z" fill="#fff"/>
    </g>
    <defs>
        <clipPath id="v8cqwfl3ha">
            <path fill="#fff" d="M0 0h138v138H0z"/>
        </clipPath>
    </defs>
</svg>
