<?xml version="1.0" encoding="utf-8"?>
<!-- Generator: Adobe Illustrator 26.0.3, SVG Export Plug-In . SVG Version: 6.00 Build 0)  -->
<svg version="1.1" id="Layer_1" xmlns="http://www.w3.org/2000/svg" xmlns:xlink="http://www.w3.org/1999/xlink" x="0px" y="0px"
	 viewBox="0 0 44 44" style="enable-background:new 0 0 44 44;" xml:space="preserve">
<style type="text/css">
	.st0{fill:none;}
	.st1{fill:#FFFFFF;}
</style>
<rect class="st0" width="44" height="44"/>
<g>
	<path class="st1" d="M30.17,30.93c-0.2,0-0.39-0.08-0.54-0.22L13.3,14.37c-0.3-0.29-0.3-0.77-0.01-1.06c0,0,0,0,0.01-0.01
		c0.3-0.3,0.78-0.3,1.07,0L30.7,29.63c0.29,0.3,0.29,0.78,0,1.07C30.56,30.85,30.37,30.93,30.17,30.93z"/>
	<path class="st1" d="M13.83,30.93c-0.42,0-0.76-0.34-0.76-0.76c0-0.2,0.08-0.39,0.22-0.54L29.63,13.3c0.3-0.3,0.78-0.3,1.07,0
		c0.29,0.3,0.29,0.77,0,1.07L14.37,30.7C14.23,30.84,14.04,30.92,13.83,30.93z"/>
	<path class="st1" d="M22,44C9.86,43.99,0.01,34.14,0,22C0.01,9.86,9.86,0.01,22,0c12.14,0.01,21.99,9.86,22,22
		c-0.01,5.83-2.33,11.43-6.45,15.55C33.43,41.67,27.83,43.99,22,44z M22,1.52C10.69,1.53,1.53,10.69,1.52,22
		C1.53,33.31,10.69,42.47,22,42.48c5.43-0.01,10.64-2.17,14.48-6.01c3.84-3.84,6-9.05,6-14.48C42.47,10.69,33.31,1.53,22,1.52z"/>
</g>
</svg>
