<svg width="285" height="39" viewBox="0 0 285 39" fill="none" xmlns="http://www.w3.org/2000/svg">
    <g clip-path="url(#3f2ej35k3a)" fill="#fff">
        <path d="M17.58 31.35a18.49 18.49 0 0 1-12.3-5L0 32.11c1.72 1.94 8.36 6.9 17.91 6.9 6.8 0 15.16-3.18 15.16-11.21 0-9.1-9.55-11-16-12.39-4.8-1.07-6.8-2.15-6.8-4.42 0-3.6 5.5-3.6 7-3.6a19.83 19.83 0 0 1 11 3.44l4-5.92A24.87 24.87 0 0 0 16.95.06C9.12.06 1.84 3.67 1.84 10.67c0 3.29 1.46 7.22 7 9.54 3.51 1.45 6.2 1.88 10.14 2.8 2.7.64 5.83 1.67 5.83 4.41-.05 2.58-3.07 3.93-7.23 3.93zM55.78 14.11l10.84 15.14 10.9-15.08V38.3h8.04V.65h-7.71L66.62 17.08 55.3.65h-7.56V38.3h8.04V14.11zM110.66 38.3h8.26V7.87h11.76V.65H98.84v7.22h11.82V38.3zM159.26 39c12 0 20-8.73 20-19.5S171.33 0 159.26 0s-19.91 8.78-19.91 19.5S147.34 39 159.26 39zm0-31.35c6.74 0 11.38 4.84 11.38 11.85s-4.74 11.9-11.38 11.9c-6.64 0-11.33-5-11.33-11.9s4.64-11.85 11.33-11.85zM205.5 38.3l7.77-24.35 7.83 24.35h6.47L239.76.65h-8.57l-6.8 24.02L216.51.65h-6.42l-7.5 24.08L195.47.65h-8.63l12.19 37.65h6.47zM259.54 14.22 277.5 38.3h7.5V.65h-8.04l-.05 23.86L259 .65h-7.5V38.3h8.04V14.22z"/>
    </g>
    <defs>
        <clipPath id="3f2ej35k3a">
            <path fill="#fff" d="M0 0h285v39H0z"/>
        </clipPath>
    </defs>
</svg>
