<svg width="42" height="42" viewBox="0 0 42 42" fill="none" xmlns="http://www.w3.org/2000/svg">
    <g clip-path="url(#o35vz8c4ba)" fill="#999">
        <path d="M18.24 25.17c-.34 0-.69-.13-.95-.39-.52-.52-.52-1.38 0-1.9L39.71.39c.52-.52 1.37-.52 1.9 0 .52.52.52 1.38 0 1.9L19.19 24.78c-.26.26-.6.39-.95.39z"/>
        <path d="M40.66 15.48c-.74 0-1.34-.6-1.34-1.34V1.34a1.34 1.34 0 0 1 2.68 0v12.79c0 .74-.6 1.34-1.34 1.34v.01z"/>
        <path d="M40.66 2.69H27.91c-.74 0-1.34-.6-1.34-1.34 0-.74.6-1.35 1.34-1.35h12.75a1.34 1.34 0 0 1 0 2.68v.01zM33.68 20.98v16.37c0 1.02-.82 1.85-1.84 1.85H4.64c-1.02 0-1.84-.83-1.84-1.85V10.31c0-1.02.82-1.85 1.84-1.85h16.34c.77 0 1.39-.63 1.39-1.4 0-.78-.62-1.41-1.39-1.41H4.64A4.66 4.66 0 0 0 0 10.31v27.04C0 39.92 2.08 42 4.64 42h27.2c2.56 0 4.64-2.08 4.64-4.65V20.98c0-.77-.63-1.4-1.4-1.4-.77 0-1.4.63-1.4 1.4z"/>
    </g>
    <defs>
        <clipPath id="o35vz8c4ba">
            <path fill="#fff" d="M0 0h42v42H0z"/>
        </clipPath>
    </defs>
</svg>
