<svg width="180" height="180" viewBox="0 0 180 180" fill="none" xmlns="http://www.w3.org/2000/svg">
    <path d="M180 0H0v180h180V0z" fill="#1DA1F2"/>
    <path d="M68.16 137.82c44.42 0 68.71-36.8 68.71-68.71 0-1 0-2.08-.07-3.12a49.372 49.372 0 0 0 12.05-12.5 48.204 48.204 0 0 1-13.87 3.8 24.198 24.198 0 0 0 10.61-13.36 48.28 48.28 0 0 1-15.33 5.87 24.171 24.171 0 0 0-34.17-1 24.15 24.15 0 0 0-7 23.07 68.58 68.58 0 0 1-49.77-25.23 24.17 24.17 0 0 0 7.48 32.23 24 24 0 0 1-11-3v.31a24.16 24.16 0 0 0 19.37 23.67 23.99 23.99 0 0 1-10.9.41 24.16 24.16 0 0 0 22.62 16.75 48.475 48.475 0 0 1-30 10.36 50.458 50.458 0 0 1-5.75-.35 68.384 68.384 0 0 0 37 10.83" fill="#fff"/>
</svg>
