<svg width="180" height="180" viewBox="0 0 180 180" fill="none" xmlns="http://www.w3.org/2000/svg">
    <path d="M180 0H0v180h180V0z" fill="url(#hwnf3k0oca)"/>
    <path d="M180 0H0v180h180V0z" fill="url(#g9yx9y5asb)"/>
    <path d="M90 23.53c-18 0-20.31.08-27.4.41a48.711 48.711 0 0 0-16.12 3.08 32.5 32.5 0 0 0-11.77 7.67 32.5 32.5 0 0 0-7.67 11.77 48.553 48.553 0 0 0-3.09 16.13c-.32 7.09-.4 9.36-.4 27.41s.08 20.31.4 27.4a49.004 49.004 0 0 0 3.09 16.13 32.724 32.724 0 0 0 7.66 11.78 32.632 32.632 0 0 0 11.77 7.67 49.052 49.052 0 0 0 16.13 3.09c7.09.32 9.35.4 27.4.4 18.05 0 20.3-.08 27.39-.4a49.142 49.142 0 0 0 16.14-3.09 32.684 32.684 0 0 0 11.76-7.67 32.883 32.883 0 0 0 7.67-11.78 49.315 49.315 0 0 0 3.08-16.13c.32-7.09.41-9.35.41-27.4 0-18.05-.09-20.32-.41-27.41a49.367 49.367 0 0 0-3.08-16.13 32.763 32.763 0 0 0-7.67-11.77 32.503 32.503 0 0 0-11.77-7.67 49.005 49.005 0 0 0-16.14-3.08c-7.09-.33-9.35-.41-27.4-.41H90zm-6 12h6c17.75 0 19.85.07 26.85.38 6.48.3 10 1.38 12.34 2.29a20.76 20.76 0 0 1 7.64 5 20.804 20.804 0 0 1 5 7.65c.91 2.34 2 5.85 2.29 12.34.32 7 .39 9.11.39 26.85 0 17.74-.07 19.84-.39 26.85-.3 6.48-1.38 10-2.29 12.33a20.568 20.568 0 0 1-5 7.64 20.503 20.503 0 0 1-7.64 5c-2.34.91-5.86 2-12.34 2.29-7 .32-9.1.39-26.85.39s-19.84-.07-26.85-.39a36.909 36.909 0 0 1-12.34-2.29 20.759 20.759 0 0 1-7.64-5 20.76 20.76 0 0 1-5-7.64c-.91-2.34-2-5.86-2.29-12.34-.32-7-.38-9.11-.38-26.86s.06-19.84.38-26.85c.3-6.48 1.38-10 2.29-12.34a20.67 20.67 0 0 1 5-7.65 20.759 20.759 0 0 1 7.64-5 36.921 36.921 0 0 1 12.34-2.29c6.13-.28 8.51-.36 20.89-.38l-.04.02zm41.43 11a8 8 0 0 0-7.82 9.56 7.997 7.997 0 0 0 6.22 6.23 8 8 0 0 0 9.58-7.82 8.001 8.001 0 0 0-8-8l.02.03zm-35.47 9.32a34.142 34.142 0 0 0-34 36.56 34.252 34.252 0 0 0 31.68 31.6 34.107 34.107 0 0 0 33.689-20.397 34.107 34.107 0 0 0 2.841-13.603 34.124 34.124 0 0 0-21.061-31.532 34.118 34.118 0 0 0-13.06-2.598l-.09-.03zm-2.22 12.16a22.16 22.16 0 0 1 24.3 24.3 22.214 22.214 0 0 1-19.78 19.7A22.15 22.15 0 0 1 67.97 87.7a22.21 22.21 0 0 1 19.77-19.69z" fill="#fff"/>
    <defs>
        <radialGradient id="hwnf3k0oca" cx="0" cy="0" r="1" gradientUnits="userSpaceOnUse" gradientTransform="matrix(0 -182.615 169.703 0 41.58 194.632)">
            <stop stop-color="#FD5"/>
            <stop offset=".1" stop-color="#FD5"/>
            <stop offset=".5" stop-color="#FF543E"/>
            <stop offset="1" stop-color="#C837AB"/>
        </radialGradient>
        <radialGradient id="g9yx9y5asb" cx="0" cy="0" r="1" gradientUnits="userSpaceOnUse" gradientTransform="matrix(16.65147 85.21647 -351.03812 68.59357 -37.3 .745)">
            <stop stop-color="#3771C8"/>
            <stop offset=".13" stop-color="#3771C8"/>
            <stop offset="1" stop-color="#60F" stop-opacity="0"/>
        </radialGradient>
    </defs>
</svg>
