<svg width="180" height="180" viewBox="0 0 180 180" fill="none" xmlns="http://www.w3.org/2000/svg">
    <path d="M180 0H0v180h180V0z" fill="url(#7jo0iu0baa)"/>
    <path d="M145.38 104.06c-1.24 21.94-24.5 42.19-59.06 45-17.07 1.49-36.76-.87-51-11.25-17.32-12.65-16.59-33.33-8.43-51.33 9.22-20.36 27.19-35.71 47.61-44.21 20.93-6.24 17.67 14.26 16 21.32a1.092 1.092 0 0 0 .77 1.34c.257.072.53.047.77-.07 6.25-2.82 24.27-10.21 32-5 7.73 5.21 3.86 19.46 2.37 23.82a1.1 1.1 0 0 0 .65 1.41h.25c4.63.83 18.96 4.04 18.07 18.97z" fill="#FF0117"/>
    <path d="M79.895 140.178c24.929-2.173 44.008-16.904 42.614-32.904-1.394-16-22.734-27.21-47.663-25.037-24.93 2.172-44.009 16.904-42.615 32.904 1.395 15.999 22.734 27.209 47.664 25.037z" fill="#fff"/>
    <path d="M76.135 135.01c13.248-1.154 23.184-11.323 22.192-22.712-.992-11.389-12.537-19.686-25.786-18.532-13.249 1.155-23.185 11.323-22.192 22.713.992 11.389 12.537 19.686 25.786 18.531z" fill="#000"/>
    <path d="M67.44 125.04a6.92 6.92 0 1 0 0-13.84 6.92 6.92 0 0 0 0 13.84zM80.49 113.73a2.78 2.78 0 1 0 0-5.56 2.78 2.78 0 0 0 0 5.56z" fill="#fff"/>
    <path d="M161.02 78.16a5.367 5.367 0 0 1-1.86-.34 5.621 5.621 0 0 1-3.431-7.17A30.273 30.273 0 0 0 157.5 60.5a28.742 28.742 0 0 0-28.12-29.28 27.408 27.408 0 0 0-7.37 1 5.633 5.633 0 0 1-5.996-1.91 5.618 5.618 0 0 1-1.004-1.97 5.615 5.615 0 0 1 .479-4.31 5.628 5.628 0 0 1 3.401-2.69 38.38 38.38 0 0 1 10.44-1.43 40 40 0 0 1 39.37 40.53 41.394 41.394 0 0 1-2.39 13.89 5.635 5.635 0 0 1-5.29 3.83z" fill="#FFA82D"/>
    <path d="M141.98 70.76a6.08 6.08 0 0 1-1.89-.31 5.608 5.608 0 0 1-3.4-7.18 10.06 10.06 0 0 0 .56-3.32 9.217 9.217 0 0 0-8.94-9.3c-.789 0-1.576.1-2.34.3a5.61 5.61 0 0 1-6.83-4.07 5.629 5.629 0 0 1 3.8-6.75 20.19 20.19 0 0 1 24.84 14.08c.529 1.917.771 3.902.72 5.89a21.367 21.367 0 0 1-1.21 7.08 5.598 5.598 0 0 1-5.31 3.58z" fill="#FFA82D"/>
    <defs>
        <linearGradient id="7jo0iu0baa" x1="90" y1="5.26" x2="90" y2="176.26" gradientUnits="userSpaceOnUse">
            <stop stop-color="#FFEDA5"/>
            <stop offset=".11" stop-color="#FFEA96"/>
            <stop offset=".52" stop-color="#FFE063"/>
            <stop offset=".83" stop-color="#FFD943"/>
            <stop offset="1" stop-color="#FFD737"/>
        </linearGradient>
    </defs>
</svg>
