<svg width="180" height="180" viewBox="0 0 180 180" fill="none" xmlns="http://www.w3.org/2000/svg">
    <path d="M180 0H0v180h180V0z" fill="red"/>
    <path d="M143.07 63.34a13.867 13.867 0 0 0-9.8-9.79C124.64 51.23 90 51.23 90 51.23s-34.64 0-43.28 2.32a13.84 13.84 0 0 0-9.79 9.79c-2.32 8.67-2.32 26.67-2.32 26.67s0 18 2.32 26.66a13.834 13.834 0 0 0 9.79 9.79c8.64 2.32 43.28 2.32 43.28 2.32s34.64 0 43.27-2.32a13.877 13.877 0 0 0 9.8-9.79c2.31-8.64 2.31-26.66 2.31-26.66s0-18-2.31-26.67zm-64.15 43.28V73.38l28.83 16.63-28.83 16.61z" fill="#fff"/>
</svg>
