<svg width="180" height="180" viewBox="0 0 180 180" fill="none" xmlns="http://www.w3.org/2000/svg">
    <path d="M180 0H0v180h180V0z" fill="#000"/>
    <path fill-rule="evenodd" clip-rule="evenodd" d="M119.55 70.75a54.36 54.36 0 0 0 31.72 10.15V58.15a32.394 32.394 0 0 1-6.66-.7v17.91a54.409 54.409 0 0 1-31.73-10.15v46.43a42.05 42.05 0 0 1-42.07 42 41.89 41.89 0 0 1-23.42-7.11 41.937 41.937 0 0 0 30.08 12.65 42.069 42.069 0 0 0 42.08-42.05V70.7v.05zm8.21-23a31.714 31.714 0 0 1-8.21-18.57v-2.92h-6.35a31.861 31.861 0 0 0 14.53 21.49h.03zm-65.68 81a19.162 19.162 0 0 1-3.88-11.64 19.24 19.24 0 0 1 19.25-19.23 19.189 19.189 0 0 1 5.83.9V75.52a42.316 42.316 0 0 0-6.66-.38v18.1a19.2 19.2 0 0 0-5.84-.9 19.23 19.23 0 0 0-19.24 19.23 19.23 19.23 0 0 0 10.54 17.19v-.01z" fill="#EE1D52"/>
    <path fill-rule="evenodd" clip-rule="evenodd" d="M112.88 65.21a54.409 54.409 0 0 0 31.73 10.15V57.45a31.86 31.86 0 0 1-16.85-9.65 31.859 31.859 0 0 1-14.56-21.49H96.62v90.87a19.25 19.25 0 0 1-19.25 19.17 19.226 19.226 0 0 1-15.32-7.59 19.23 19.23 0 0 1-10.58-17.19A19.227 19.227 0 0 1 63.348 93.8a19.23 19.23 0 0 1 7.362-1.46c1.981 0 3.95.303 5.84.9v-18.1a42.06 42.06 0 0 0-41.18 42 41.9 41.9 0 0 0 12 29.4 41.89 41.89 0 0 0 23.42 7.11 42.053 42.053 0 0 0 42.07-42l.02-46.44z" fill="#fff"/>
    <path fill-rule="evenodd" clip-rule="evenodd" d="M144.61 57.45v-4.84a31.77 31.77 0 0 1-16.85-4.81 31.827 31.827 0 0 0 16.85 9.65zM113.2 26.31c-.15-.87-.27-1.74-.35-2.61v-2.93H89.96v90.87a19.25 19.25 0 0 1-19.25 19.17 19.251 19.251 0 0 1-8.66-2 19.222 19.222 0 0 0 15.32 7.59 19.25 19.25 0 0 0 19.25-19.17V26.31h16.58zM76.55 75.14v-5.13c-1.912-.26-3.84-.39-5.77-.39a42.06 42.06 0 0 0-42.07 42 41.995 41.995 0 0 0 18.65 34.94 41.9 41.9 0 0 1-12-29.4 42.06 42.06 0 0 1 41.18-42l.01-.02z" fill="#69C9D0"/>
</svg>
