<svg width="160" height="160" viewBox="0 0 160 160" fill="none" xmlns="http://www.w3.org/2000/svg">
<g clip-path="url(#clip0_2983_25902)">
<rect width="160" height="160" fill="url(#paint0_linear_2983_25902)"/>
<g filter="url(#filter0_d_2983_25902)">
<path d="M27.2116 63.131V75.1443H24.6538V67.4372L21.1788 72.2476L17.7297 67.4113V75.1313H15.1719V63.1181H17.5746L21.1788 68.3682L24.7571 63.1181H27.2116V63.131Z" fill="white"/>
<path d="M29.6662 70.4114V63.1569H32.2886V70.3079C32.2886 72.1183 33.7484 72.8813 35.0531 72.8813C36.3578 72.8813 37.8047 72.1054 37.8047 70.3079V63.1569H40.427V70.4114C40.427 73.3209 38.1922 75.377 35.0531 75.377C31.914 75.377 29.6533 73.308 29.6533 70.4114H29.6662Z" fill="white"/>
<path d="M42.0676 73.1787L43.747 71.3424C44.8062 72.2864 46.1368 72.9459 47.6612 72.9459C48.9788 72.9459 49.9477 72.5192 49.9477 71.6916C49.9477 70.8122 48.953 70.489 48.0875 70.2821C46.8344 69.9846 45.9689 69.8553 44.8579 69.3898C43.1011 68.6527 42.636 67.3984 42.636 66.3509C42.636 64.1138 44.9613 62.9629 47.4415 62.9629C49.586 62.9629 51.317 63.7 52.3246 64.5147L51.0328 66.4026C50.4644 66.0018 49.1726 65.3035 47.5449 65.3035C47.0798 65.3035 45.323 65.3035 45.323 66.4544C45.323 67.1785 45.956 67.5147 47.4932 67.8639C49.5343 68.3165 52.583 68.9113 52.583 71.8209C52.583 74.3813 49.9218 75.4029 47.7516 75.4029C44.7158 75.4029 42.5972 73.8253 42.0547 73.2045L42.0676 73.1787Z" fill="white"/>
<path d="M54.7793 63.131H57.4017V75.1443H54.7793V63.131Z" fill="white"/>
<path d="M59.6357 69.1441C59.6357 65.7173 62.2969 62.9241 66.1336 62.9241C68.11 62.9241 69.6731 63.5577 70.9649 64.7992L69.3889 66.6871C68.6655 65.9759 67.6579 65.3293 66.1465 65.3293C64.0021 65.3293 62.3615 66.907 62.3615 69.1829C62.3615 71.4588 64.015 72.8942 66.1465 72.8942C68.0067 72.8942 69.0014 72.0019 69.7248 71.239L71.43 73.0106C70.1899 74.4718 68.4588 75.3641 66.1594 75.3641C62.3485 75.3641 59.6616 72.558 59.6616 69.1441H59.6357Z" fill="white"/>
<path d="M78.1867 63.131H80.5766L86.2735 70.7476V63.131H88.8442V75.1443H86.4544L80.7316 67.463V75.1443H78.1738V63.131H78.1867Z" fill="white"/>
<path d="M96.0779 63.0663H98.1707L103.79 75.1572H101.026L100.031 72.9201H94.1273L93.1326 75.1572H90.4844L96.0779 63.0663V63.0663ZM99.062 70.7217L97.0985 66.2863L95.1091 70.7217H99.062Z" fill="white"/>
<path d="M106.245 65.4328H102.485V63.131H112.613V65.4328H108.867V75.1443H106.245V65.4328Z" fill="white"/>
<path d="M114.525 63.131H117.148V75.1443H114.525V63.131Z" fill="white"/>
<path d="M119.383 69.1441C119.383 65.7173 121.902 62.9241 125.726 62.9241C129.549 62.9241 132.081 65.7302 132.081 69.1441C132.081 72.558 129.536 75.3641 125.726 75.3641C121.915 75.3641 119.383 72.5838 119.383 69.1441ZM129.343 69.1441C129.343 66.907 127.87 65.3552 125.713 65.3552C123.555 65.3552 122.109 66.907 122.109 69.1441C122.109 71.3812 123.62 72.9459 125.713 72.9459C127.805 72.9459 129.343 71.3424 129.343 69.1441Z" fill="white"/>
<path d="M134.187 63.131H136.577L142.274 70.7476V63.131H144.844V75.1443H142.454L136.732 67.463V75.1443H134.174V63.131H134.187Z" fill="white"/>
<path d="M13.1049 98.3561L15.9082 95.2914C17.678 96.869 19.887 97.9552 22.4318 97.9552C24.6408 97.9552 26.2427 97.244 26.2427 95.8603C26.2427 94.3991 24.5762 93.856 23.1552 93.5068C21.0625 93.0154 19.6286 92.7956 17.7684 92.0197C14.8489 90.7912 14.0738 88.6963 14.0738 86.9506C14.0738 83.2264 17.9363 81.3125 22.083 81.3125C25.6614 81.3125 28.555 82.541 30.2085 83.8859L28.0641 87.0411C27.1211 86.3816 24.9767 85.2049 22.251 85.2049C21.4759 85.2049 18.5564 85.2049 18.5564 87.1187C18.5564 88.3213 19.6157 88.8903 22.1605 89.4722C25.5709 90.2223 30.6348 91.218 30.6348 96.0672C30.6348 100.335 26.2039 102.029 22.5868 102.029C17.5229 102.029 13.9963 99.3906 13.0791 98.3561H13.1049Z" fill="white"/>
<path d="M54.1458 81.6229V101.654H49.8829V88.8127L44.0955 96.8302L38.347 88.7739V101.641H34.084V81.61H38.0886L44.0955 90.3516L50.0508 81.61H54.1458V81.6229Z" fill="white"/>
<path d="M63.3952 85.4635H57.1299V81.6229H74.0139V85.4635H67.7744V101.654H63.3952V85.4635V85.4635Z" fill="white"/>
<path d="M74.7373 91.6447C74.7373 85.942 78.9486 81.2737 85.3043 81.2737C91.6601 81.2737 95.8972 85.942 95.8972 91.6447C95.8972 97.3475 91.6601 102.016 85.3043 102.016C78.9486 102.016 74.7373 97.3733 74.7373 91.6447ZM91.3371 91.6447C91.3371 87.9205 88.8697 85.3471 85.3043 85.3471C81.7389 85.3471 79.2974 87.9205 79.2974 91.6447C79.2974 95.369 81.8164 97.9811 85.3043 97.9811C88.7922 97.9811 91.3371 95.3172 91.3371 91.6447Z" fill="white"/>
<path d="M96.8276 81.6229H101.401L105.173 94.425L109.152 81.6229H112.562L116.734 94.3991L120.339 81.6229H124.886L118.414 101.654H114.978L110.831 88.7093L106.71 101.654H103.274L96.8018 81.6229H96.8276Z" fill="white"/>
<path d="M127.767 81.6229H131.745L141.253 94.3215L141.279 81.6229H145.542V101.654H141.563L132.03 88.8515V101.654H127.767V81.6229Z" fill="white"/>
</g>
</g>
<defs>
<filter id="filter0_d_2983_25902" x="0.479101" y="50.3241" width="157.663" height="64.3045" filterUnits="userSpaceOnUse" color-interpolation-filters="sRGB">
<feFlood flood-opacity="0" result="BackgroundImageFix"/>
<feColorMatrix in="SourceAlpha" type="matrix" values="0 0 0 0 0 0 0 0 0 0 0 0 0 0 0 0 0 0 127 0" result="hardAlpha"/>
<feOffset/>
<feGaussianBlur stdDeviation="6.3"/>
<feColorMatrix type="matrix" values="0 0 0 0 0 0 0 0 0 0 0 0 0 0 0 0 0 0 0.15 0"/>
<feBlend mode="normal" in2="BackgroundImageFix" result="effect1_dropShadow_2983_25902"/>
<feBlend mode="normal" in="SourceGraphic" in2="effect1_dropShadow_2983_25902" result="shape"/>
</filter>
<linearGradient id="paint0_linear_2983_25902" x1="16.2418" y1="4.5644" x2="155.862" y2="169.786" gradientUnits="userSpaceOnUse">
<stop offset="0.08" stop-color="#FFDCAD"/>
<stop offset="0.32" stop-color="#FF9EC2"/>
<stop offset="0.52" stop-color="#FF6FD3"/>
<stop offset="0.56" stop-color="#F56ED4"/>
<stop offset="0.63" stop-color="#DC6CD8"/>
<stop offset="0.72" stop-color="#B369E0"/>
<stop offset="0.82" stop-color="#7966E9"/>
<stop offset="0.93" stop-color="#3161F6"/>
<stop offset="1" stop-color="#005EFF"/>
</linearGradient>
<clipPath id="clip0_2983_25902">
<rect width="160" height="160" fill="white"/>
</clipPath>
</defs>
</svg>
